<svg width="24" height="24" viewBox="0 0 24 24" fill="none" xmlns="http://www.w3.org/2000/svg">
<path d="M12.0004 8.87891C11.869 8.87876 11.739 8.90457 11.6176 8.95485C11.4963 9.00514 11.3861 9.0789 11.2934 9.17191L7.05067 13.4141C6.86316 13.6016 6.75781 13.8559 6.75781 14.1211C6.75781 14.3863 6.86316 14.6406 7.05068 14.8281C7.23819 15.0156 7.49252 15.121 7.75771 15.121C8.0229 15.121 8.27723 15.0156 8.46474 14.8281L12.0004 11.293L15.536 14.8282C15.7235 15.0157 15.9779 15.121 16.2431 15.121C16.5082 15.121 16.7626 15.0157 16.9501 14.8282C17.1376 14.6406 17.243 14.3863 17.243 14.1211C17.243 13.8559 17.1376 13.6016 16.9501 13.4141L12.7074 9.17188C12.6147 9.07888 12.5045 9.00512 12.3831 8.95484C12.2618 8.90456 12.1317 8.87876 12.0004 8.87891Z" fill="black"/>
</svg>
