<svg width="24" height="24" viewBox="0 0 24 24" fill="none" xmlns="http://www.w3.org/2000/svg">
<path d="M12.0004 15.1211C11.869 15.1213 11.739 15.0954 11.6176 15.0452C11.4963 14.9949 11.3861 14.9211 11.2934 14.8281L7.05067 10.586C6.86316 10.3984 6.75781 10.1441 6.75781 9.87892C6.75781 9.61373 6.86316 9.3594 7.05068 9.17189C7.23819 8.98437 7.49252 8.87903 7.75771 8.87903C8.0229 8.87903 8.27723 8.98437 8.46474 9.17189L12.0004 12.707L15.536 9.17186C15.7235 8.98435 15.9779 8.879 16.2431 8.879C16.5082 8.879 16.7626 8.98434 16.9501 9.17186C17.1376 9.35937 17.243 9.6137 17.243 9.87889C17.243 10.1441 17.1376 10.3984 16.9501 10.5859L12.7074 14.8281C12.6147 14.9211 12.5045 14.9949 12.3831 15.0452C12.2618 15.0955 12.1317 15.1213 12.0004 15.1211Z" fill="black"/>
</svg>
