<svg width="55" height="55" viewBox="0 0 55 55" fill="none" xmlns="http://www.w3.org/2000/svg">
<path id="Star 4" d="M27.5 0L28.0259 8.41653C28.0943 9.51108 29.6587 9.63118 29.8934 8.5599L31.6979 0.322289L30.9328 8.72046C30.8333 9.81262 32.3611 10.1701 32.7565 9.14722L35.7973 1.2816L33.7592 9.46455C33.4942 10.5287 34.9495 11.1153 35.4964 10.1647L39.7023 2.85545L36.439 10.6314C36.0146 11.6426 37.3633 12.4444 38.049 11.5885L43.3213 5.00694L38.9092 12.1936C38.3354 13.1282 39.5459 14.1265 40.3542 13.3853L46.5694 7.68566L41.112 14.1146C40.4023 14.9507 41.4462 16.122 42.3582 15.5129L49.3706 10.8288L42.9957 16.3493C42.1667 17.0673 43.0196 18.3843 44.0138 17.9215L51.6591 14.3627L44.5163 18.8454C43.5874 19.4284 44.2292 20.8602 45.2825 20.5545L53.3814 18.2045L45.638 21.5444C44.631 21.9787 45.0467 23.4917 46.1343 23.3504L54.497 22.2642L46.3345 24.3829C45.273 24.6585 45.453 26.2171 46.5493 26.2436L54.9798 26.4467L46.5896 27.2945C45.4985 27.4048 45.4384 28.9727 46.5179 29.1662L54.8186 30.6538L46.3972 30.211C45.3021 30.1534 45.0034 31.6937 46.0407 32.0497L54.017 34.787L45.762 33.0638C44.6884 32.8398 44.1581 34.3164 45.1289 34.8266L52.5938 38.7494L44.6986 35.7863C43.6719 35.401 42.9223 36.7794 43.8039 37.4318L50.5826 42.4481L43.2322 38.3146C42.2763 37.777 41.3251 39.0248 42.0967 39.8041L48.0302 45.7965L41.3969 40.5893C40.5343 39.9121 39.4038 41.0002 40.0474 41.8881L44.9967 48.716L39.236 42.5573C38.4868 41.7564 37.2035 42.659 37.704 43.6348L41.553 51.1382L36.8 44.1723C36.1819 43.2664 34.7757 43.9626 35.1215 45.0034L37.78 53.0063L34.146 45.3965C33.6734 44.4069 32.1775 44.8803 32.3603 45.9617L33.766 54.2766L31.3362 46.2013C31.0202 45.1511 29.4696 45.3907 29.4852 46.4872L29.6051 54.9193L28.4365 46.5677C28.2845 45.4816 26.7155 45.4816 26.5635 46.5677L25.3949 54.9193L25.5148 46.4872C25.5304 45.3906 23.9798 45.1511 23.6638 46.2013L21.234 54.2766L22.6397 45.9617C22.8225 44.8803 21.3266 44.4069 20.854 45.3965L17.22 53.0063L19.8785 45.0034C20.2243 43.9626 18.8181 43.2664 18.2 44.1723L13.447 51.1382L17.296 43.6348C17.7965 42.659 16.5132 41.7564 15.764 42.5573L10.0033 48.716L14.9526 41.8881C15.5962 41.0002 14.4657 39.9121 13.603 40.5893L6.96979 45.7965L12.9033 39.8041C13.6749 39.0248 12.7237 37.777 11.7678 38.3146L4.41745 42.4481L11.1961 37.4318C12.0777 36.7794 11.3281 35.401 10.3014 35.7863L2.40615 38.7494L9.87115 34.8266C10.842 34.3164 10.3116 32.8398 9.23804 33.0638L0.983028 34.787L8.95935 32.0497C9.99665 31.6937 9.69792 30.1534 8.60275 30.211L0.181442 30.6538L8.48213 29.1662C9.56162 28.9727 9.50151 27.4048 8.41039 27.2945L0.0201797 26.4467L8.45068 26.2436C9.54704 26.2171 9.72698 24.6585 8.66547 24.3829L0.503021 22.2642L8.86572 23.3504C9.95327 23.4917 10.369 21.9787 9.36202 21.5444L1.61865 18.2045L9.71754 20.5545C10.7708 20.8602 11.4126 19.4284 10.4837 18.8454L3.34091 14.3627L10.9862 17.9215C11.9804 18.3843 12.8333 17.0673 12.0043 16.3493L5.62945 10.8288L12.6419 15.5129C13.5538 16.122 14.5977 14.9507 13.888 14.1146L8.43061 7.68566L14.6458 13.3853C15.4541 14.1265 16.6646 13.1282 16.0908 12.1936L11.6787 5.00694L16.9511 11.5885C17.6367 12.4444 18.9854 11.6426 18.561 10.6314L15.2977 2.85545L19.5036 10.1647C20.0505 11.1153 21.5058 10.5287 21.2408 9.46455L19.2027 1.2816L22.2435 9.14722C22.6389 10.1701 24.1667 9.81261 24.0672 8.72045L23.3021 0.322289L25.1066 8.55991C25.3413 9.63119 26.9057 9.51108 26.9741 8.41653L27.5 0Z" fill="#DEDDFF"/>
</svg>
