<svg width="515" height="308" viewBox="0 0 515 308" fill="none" xmlns="http://www.w3.org/2000/svg">
<path d="M509.419 0C516.133 21.549 520.555 69.5059 484.541 88.9412C439.522 113.235 412.866 121.471 387.988 130.118C363.109 138.765 342.377 158.529 328.161 200.529C313.944 242.529 271.888 306.765 231.016 308M419.975 0C428.465 19.7647 427.675 68.1882 356.593 103.765C267.741 148.235 272.48 141.235 252.933 193.941C233.385 246.647 166.45 273 107.215 267.647C47.9802 262.294 2.36937 240.882 -2.19068e-05 237.588M332.307 0C351.46 13.3137 373.89 46.9412 310.39 74.9412C231.016 109.941 226.869 140.412 215.615 177.059C204.36 213.706 185.405 223.176 149.864 223.176C114.323 223.176 8.8852 210.824 -2.19068e-05 193.941M254.117 0C274.652 8.78431 303.401 33.6824 254.117 63C192.513 99.6471 184.813 86.0588 181.851 140C178.889 193.941 34.3562 167.176 -2.19068e-05 140M181.851 0C195.672 9.05882 215.97 31.6235 186.59 49.4118C149.864 71.6471 128.539 69.5882 127.355 97.5882C126.17 125.588 105.438 148.647 -2.19068e-05 97.5882M102.476 0C102.476 26.0784 81.9809 72.4706 -2.19068e-05 49.4118" stroke="#21B7ED"/>
</svg>
